<?xml version="1.0" standalone="no"?>
<!DOCTYPE svg PUBLIC "-//W3C//DTD SVG 20010904//EN"
 "http://www.w3.org/TR/2001/REC-SVG-20010904/DTD/svg10.dtd">
<svg version="1.0" xmlns="http://www.w3.org/2000/svg"
 width="144.000000pt" height="144.000000pt" viewBox="0 0 144.000000 144.000000"
 preserveAspectRatio="xMidYMid meet">
<metadata>
Created by potrace 1.11, written by Peter Selinger 2001-2013
</metadata>
<g transform="translate(0.000000,144.000000) scale(0.100000,-0.100000)"
fill="#000000" stroke="none">
<path d="M615 1424 c-58 -17 -86 -47 -116 -121 -12 -29 -25 -50 -30 -47 -21
12 -48 -148 -30 -175 7 -11 2 -23 -15 -44 -14 -17 -23 -36 -20 -44 4 -8 6 -19
6 -24 0 -4 14 -15 30 -24 17 -9 30 -22 30 -31 0 -23 45 -106 75 -137 26 -27
26 -33 -4 -70 -15 -18 -171 -97 -191 -97 -25 0 -56 -64 -76 -161 -11 -56 -18
-162 -19 -274 l0 -120 190 -2 c105 -1 197 -2 205 -2 8 -1 28 -12 44 -26 16
-14 31 -25 33 -25 2 0 16 11 31 25 23 21 37 25 92 26 36 0 128 1 205 2 l140 2
-1 120 c0 177 -15 287 -49 380 -14 38 -21 43 -116 84 -73 32 -107 53 -126 78
l-26 33 28 28 c28 27 75 115 75 139 0 7 14 19 30 28 17 9 30 19 31 23 0 4 2
15 4 24 2 9 -8 31 -21 49 -18 24 -21 36 -13 46 7 7 9 27 5 48 -4 19 -9 51 -11
69 -3 19 -16 46 -30 60 -14 14 -25 31 -25 39 0 7 -13 33 -28 58 -23 35 -38 48
-73 58 -68 21 -177 23 -234 5z"/>
</g>
</svg>
